# xmcd
#
# Track frame offsets:
#	150
#	15075
#	30341
#	46853
#	62589
#	72377
#	87931
#	98195
#	111931
#	122759
#	134904
#	144279
#	156663
#
# Disc length: 2222 seconds
#
# Revision: 0
# Processed by: cddbd v1.5.2PL0 Copyright (c) Steve Scherf et al.
# Submitted via: EasyCDDAExtractor 10.2.0.1
#
DISCID=ae08ac0d
DTITLE=Van Morrison - Tell Me Something - The Songs Of Mose Allison
DYEAR=1996
DGENRE=Blues
TTITLE0=One Of These Days
TTITLE1=You Can Count On Me (To Do My Part)
TTITLE2=If You Live
TTITLE3=Was
TTITLE4=Look Here
TTITLE5=City Home
TTITLE6=No Trouble Livin`
TTITLE7=Benediction
TTITLE8=Back On The Corner
TTITLE9=Tell Me Something
TTITLE10=I Don`t Want Much
TTITLE11=News Nightclub
TTITLE12=Perfect Moment
EXTD=YEAR: 1996 ID3G: 0\n
EXTT0=
EXTT1=
EXTT2=
EXTT3=
EXTT4=
EXTT5=
EXTT6=
EXTT7=
EXTT8=
EXTT9=
EXTT10=
EXTT11=
EXTT12=
PLAYORDER=
